<?xml version="1.0" encoding="iso-8859-1"?>
<!-- Generator: Adobe Illustrator 16.0.0, SVG Export Plug-In . SVG Version: 6.00 Build 0)  -->
<!DOCTYPE svg PUBLIC "-//W3C//DTD SVG 1.1//EN" "http://www.w3.org/Graphics/SVG/1.1/DTD/svg11.dtd">
<svg version="1.1" id="Capa_1" xmlns="http://www.w3.org/2000/svg" xmlns:xlink="http://www.w3.org/1999/xlink" x="0px" y="0px"
	 width="94.326px" height="94.327px" viewBox="0 0 94.326 94.327" style="enable-background:new 0 0 94.326 94.327;"
	 xml:space="preserve">
<g>
	<path d="M68.08,61.19c0.396-8.484-0.166-17.716-8.697-26.246c-8.529-8.53-17.762-9.093-26.245-8.696
		C33.533,17.764,32.972,8.532,24.442,0l-4.585,4.583c1.632,1.63,2.876,3.274,3.847,4.938L9.521,23.705
		c-1.664-0.971-3.308-2.215-4.938-3.847L0,24.441c8.531,8.53,17.763,9.091,26.247,8.696c-0.396,8.483,0.166,17.714,8.696,26.245
		c8.53,8.531,17.762,9.093,26.247,8.697c-0.396,8.483,0.164,17.716,8.695,26.246l4.584-4.583c-1.949-1.948-3.369-3.914-4.397-5.914
		l13.758-13.758c2,1.029,3.966,2.449,5.914,4.396l4.583-4.584C85.796,61.354,76.562,60.794,68.08,61.19z M26.629,26.63
		c-4.108,0.222-7.978,0.249-11.698-0.698l11.001-11.001C26.879,18.651,26.851,22.521,26.629,26.63z M33.452,44.453
		c-0.947-3.72-0.92-7.589-0.698-11.698c4.109-0.222,7.979-0.249,11.698,0.698L33.452,44.453z M39.524,54.801
		c-1.629-1.631-2.873-3.272-3.845-4.938l14.184-14.182c1.664,0.971,3.308,2.215,4.938,3.845c1.172,1.172,2.133,2.351,2.954,3.539
		l-14.69,14.69C41.876,56.934,40.697,55.973,39.524,54.801z M61.572,61.573c-4.762,0.256-9.197,0.244-13.455-1.233l12.222-12.222
		C61.816,52.375,61.829,56.811,61.572,61.573z M68.12,78.143c-0.657-3.336-0.62-6.797-0.423-10.445
		c3.648-0.197,7.109-0.234,10.445,0.423L68.12,78.143z"/>
</g>
<g>
</g>
<g>
</g>
<g>
</g>
<g>
</g>
<g>
</g>
<g>
</g>
<g>
</g>
<g>
</g>
<g>
</g>
<g>
</g>
<g>
</g>
<g>
</g>
<g>
</g>
<g>
</g>
<g>
</g>
</svg>
